<?xml version="1.0" encoding="UTF-8"?>
<svg xmlns="https://www.w3.org/2000/svg" xmlns:xlink="https://www.w3.org/1999/xlink" viewBox="0 0 319.41 339.62">
  <defs>
    <style>
      .cls-1 {
        fill: url(#linear-gradient-2);
      }

      .cls-2 {
        fill: #0a2033;
      }

      .cls-3 {
        fill: #141b56;
      }

      .cls-4 {
        fill: #fbd15b;
      }

      .cls-5 {
        fill: #6d4b35;
      }

      .cls-5, .cls-6 {
        mix-blend-mode: screen;
      }

      .cls-7 {
        fill: #a5b7c6;
      }

      .cls-8 {
        fill: #30475e;
      }

      .cls-9 {
        fill: url(#radial-gradient-5);
      }

      .cls-10 {
        fill: url(#radial-gradient-4);
      }

      .cls-11 {
        isolation: isolate;
      }

      .cls-12 {
        fill: #56548c;
      }

      .cls-13 {
        fill: #ff8578;
      }

      .cls-14 {
        fill: #8495a0;
      }

      .cls-15 {
        fill: url(#radial-gradient-6);
      }

      .cls-16 {
        fill: #f9fbfc;
      }

      .cls-17 {
        fill: url(#radial-gradient);
      }

      .cls-18 {
        fill: #3d3d7a;
      }

      .cls-19 {
        fill: #95a8b5;
      }

      .cls-20 {
        fill: #747ded;
      }

      .cls-21 {
        fill: #f4675d;
      }

      .cls-22 {
        fill: #f1f2f2;
      }

      .cls-23 {
        fill: url(#radial-gradient-2);
      }

      .cls-24 {
        fill: #606bf1;
      }

      .cls-25 {
        fill: url(#radial-gradient-3);
      }

      .cls-26 {
        fill: #f7b094;
      }

      .cls-27 {
        fill: #e8987c;
      }

      .cls-28 {
        fill: #1d262d;
      }

      .cls-29 {
        fill: url(#linear-gradient-3);
      }

      .cls-30 {
        fill: #abb5ba;
      }

      .cls-31 {
        fill: url(#linear-gradient);
      }

      .cls-32 {
        fill: #112b46;
      }
    </style>
    <radialGradient id="radial-gradient" cx="196.57" cy="112.6" fx="196.57" fy="112.6" r="12.93" gradientUnits="userSpaceOnUse">
      <stop offset="0" stop-color="#ffc8af"/>
      <stop offset="1" stop-color="#ffbb9c"/>
    </radialGradient>
    <radialGradient id="radial-gradient-2" cx="197.1" cy="102.3" fx="197.1" fy="102.3" r="20.38" gradientTransform="translate(-25.13 30.69) rotate(-12.15)" xlink:href="#radial-gradient"/>
    <radialGradient id="radial-gradient-3" cx="169.01" cy="307.77" fx="169.01" fy="307.77" r="8.13" xlink:href="#radial-gradient"/>
    <radialGradient id="radial-gradient-4" cx="117.55" cy="309.81" fx="117.55" fy="309.81" r="7.4" xlink:href="#radial-gradient"/>
    <radialGradient id="radial-gradient-5" cx="162.61" cy="170.92" fx="162.61" fy="170.92" r="41.44" xlink:href="#radial-gradient"/>
    <radialGradient id="radial-gradient-6" cx="162.61" cy="170.92" fx="162.61" fy="170.92" r="41.44" xlink:href="#radial-gradient"/>
    <linearGradient id="linear-gradient" x1="395.17" y1="51.73" x2="355.83" y2="101.32" gradientTransform="translate(-38.81 424.07) rotate(-38.43)" gradientUnits="userSpaceOnUse">
      <stop offset="0" stop-color="#606bf1"/>
      <stop offset="1" stop-color="#58479f"/>
    </linearGradient>
    <linearGradient id="linear-gradient-2" x1="477.39" y1="-45.36" x2="438.06" y2="4.23" gradientTransform="translate(79.44 671.29) rotate(-63.39)" xlink:href="#linear-gradient"/>
    <linearGradient id="linear-gradient-3" x1="446.89" y1="-15.26" x2="398.21" y2="46.11" gradientTransform="translate(14.37 569.67) rotate(-52.61)" xlink:href="#linear-gradient"/>
  </defs>
  <g class="cls-11">
    <g id="OBJECTS">
      <g>
        <g>
          <rect class="cls-32" x="39.28" y="19.34" width="97.55" height="91.05"/>
          <g class="cls-6">
            <rect class="cls-28" x="39.28" y="19.34" width="97.55" height="9.63"/>
          </g>
          <g>
            <path class="cls-24" d="M115.75,24.27c0,.97-.79,1.77-1.77,1.77s-1.77-.79-1.77-1.77,.79-1.77,1.77-1.77,1.77,.79,1.77,1.77Z"/>
            <path class="cls-4" d="M123.12,24.27c0,.97-.79,1.77-1.77,1.77s-1.77-.79-1.77-1.77,.79-1.77,1.77-1.77,1.77,.79,1.77,1.77Z"/>
            <path class="cls-13" d="M129.96,24.45c0,.97-.79,1.77-1.77,1.77s-1.77-.79-1.77-1.77,.79-1.77,1.77-1.77,1.77,.79,1.77,1.77Z"/>
          </g>
          <g>
            <g>
              <rect class="cls-13" x="56.63" y="37.92" width="13.82" height="1.16"/>
              <rect class="cls-4" x="72.84" y="37.92" width="13.82" height="1.16"/>
              <rect class="cls-24" x="60.9" y="44.18" width="21.43" height="1.16"/>
              <rect class="cls-13" x="85.87" y="44.18" width="10.89" height="1.16"/>
              <rect class="cls-4" x="68.33" y="50.44" width="9.41" height="1.16"/>
              <rect class="cls-4" x="83.18" y="50.44" width="31.22" height="1.16"/>
              <rect class="cls-24" x="75.64" y="56.69" width="35.68" height="1.16"/>
              <rect class="cls-13" x="66.72" y="62.95" width="10.98" height="1.16"/>
              <rect class="cls-24" x="82.4" y="62.95" width="10.98" height="1.16"/>
            </g>
            <g>
              <rect class="cls-13" x="56.63" y="95.4" width="15.97" height="1.16"/>
              <rect class="cls-4" x="78.19" y="95.4" width="15.97" height="1.16"/>
              <rect class="cls-13" x="99.18" y="95.4" width="15.97" height="1.16"/>
              <rect class="cls-24" x="60.9" y="89.15" width="31.22" height="1.16"/>
              <rect class="cls-13" x="96.98" y="89.15" width="31.22" height="1.16"/>
              <rect class="cls-13" x="68.33" y="82.89" width="30.98" height="1.16"/>
              <rect class="cls-4" x="102.01" y="82.89" width="8.62" height="1.16"/>
              <rect class="cls-4" x="66.31" y="76.64" width="11.66" height="1.16"/>
              <rect class="cls-24" x="84.16" y="76.64" width="11.66" height="1.16"/>
              <rect class="cls-13" x="103.33" y="76.64" width="11.66" height="1.16"/>
              <rect class="cls-4" x="79.83" y="70.38" width="16.35" height="1.16"/>
              <rect class="cls-24" x="57.31" y="70.38" width="16.35" height="1.16"/>
            </g>
          </g>
          <g>
            <rect class="cls-16" x="47.58" y="36.81" width="1.49" height="1.49"/>
            <path class="cls-16" d="M49.07,91.35h-1.49v-3.03h1.49v3.03Zm0-7.58h-1.49v-3.03h1.49v3.03Zm0-7.58h-1.49v-3.03h1.49v3.03Zm0-7.58h-1.49v-3.03h1.49v3.03Zm0-7.58h-1.49v-3.03h1.49v3.03Zm0-7.58h-1.49v-3.03h1.49v3.03Zm0-7.58h-1.49v-3.03h1.49v3.03Z"/>
            <rect class="cls-16" x="47.58" y="95.9" width="1.49" height="1.49"/>
          </g>
        </g>
        <g>
          <rect class="cls-13" x="157.82" width="80.33" height="49.52"/>
          <g>
            <path class="cls-16" d="M189.02,19.92l-9.56,4.08,9.56,4.02-1.25,2.89-11.46-5.12v-3.54l11.46-5.15,1.25,2.83Z"/>
            <path class="cls-16" d="M203.11,10.48l-6.94,26.65-3.3-.77,6.97-26.62,3.27,.74Z"/>
            <path class="cls-16" d="M219.69,22.24v3.54l-11.46,5.12-1.25-2.89,9.53-4.02-9.53-4.08,1.25-2.83,11.46,5.15Z"/>
          </g>
        </g>
        <g>
          <rect class="cls-24" x="235.4" y="95.93" width="45.75" height="32.6"/>
          <g>
            <path class="cls-22" d="M254.53,102.96c-1.47,0-1.96,.4-1.96,1.5v4.91c0,1.92-.79,2.5-2.13,2.87,1.33,.35,2.13,.93,2.13,2.83v4.91c0,1.1,.51,1.5,1.96,1.5v2.15c-3.71,0-4.77-1.19-4.77-3.67v-4.65c0-1.33-.35-1.85-1.56-1.85v-2.45c1.21,0,1.56-.54,1.56-1.87v-4.65c0-2.5,1.05-3.67,4.77-3.67v2.15Z"/>
            <path class="cls-22" d="M266.78,104.48v4.65c0,1.33,.35,1.87,1.59,1.87v2.45c-1.24,0-1.59,.51-1.59,1.85v4.65c0,2.48-1.05,3.67-4.77,3.67v-2.15c1.45,0,1.96-.4,1.96-1.5v-4.91c0-1.89,.79-2.48,2.13-2.83-1.33-.37-2.13-.96-2.13-2.87v-4.91c0-1.1-.49-1.5-1.96-1.5v-2.15c3.71,0,4.77,1.17,4.77,3.67Z"/>
          </g>
        </g>
        <g>
          <rect class="cls-4" x="8.23" y="7.1" width="51.33" height="34.33"/>
          <path class="cls-16" d="M25.22,16.96c-2.45,3.07-2.41,7.55,.08,10.58,2.84,3.44,7.7,4,11.19,1.67l5.39,5.39c.23,.23,.6,.23,.82,0l1.51-1.51c.23-.23,.23-.6,0-.82l-5.39-5.39c2.18-3.27,1.83-7.74-1.05-10.63-3.51-3.51-9.37-3.27-12.56,.72Zm10.81,9.45c-2.32,2.32-6.1,2.32-8.42,0-2.32-2.32-2.32-6.1,0-8.42,2.32-2.32,6.1-2.32,8.42,0,2.32,2.32,2.32,6.1,0,8.42Z"/>
        </g>
        <g>
          <g>
            <path class="cls-17" d="M208.87,113.15c-.11,1.13-1.66,12.97-13.84,12.97-12.78,0-10.64-12.65-10.64-12.65l-.02-.08c1.25-.26,2.59-.35,4.01-.19v-5.99l14.51-8.12h.53v13.98s2.3-.27,5.45,.08Z"/>
            <g>
              <path class="cls-23" d="M201.83,72.34c2.06,2.09,3.61,4.79,4.36,8.08,1.39,6.15,.08,12.65-1.7,18.57-.3,1.01-.65,2.04-1.28,2.89-.45,.61-1.02,1.11-1.59,1.61-2.58,2.25-5.16,4.5-7.74,6.75-1.75,1.53-12.49,2.8-14.54,1.33-7.9-5.65-9.42-22.02-7.84-30.39,2.62-13.88,20.47-18.85,30.32-8.85Z"/>
              <path class="cls-26" d="M197.39,90.11c.11-1.34,1.48-2.8,2.86-1.93,1.43,.9,1.09,3.27,.5,4.58-.46,1.02-2.02,2.15-3.07,1.19-.88-.8,.49-1.74,.53-2.47,.04-.66-1.27-1.13-.73-1.83"/>
              <path class="cls-26" d="M197.64,96.29c1.44,.43,3.88-.67,4.5-2.67,.62-2.01,.55-4.3,.55-4.3,0,0,.73,1.82,.35,4.74s-1.4,5.7-3.69,5.74c-2.29,.04-1.71-3.51-1.71-3.51Z"/>
              <path class="cls-18" d="M195.88,94.21s-.1,.04-.16,.05c-.89,.12-1.25-.95-1.38-1.63-.31-1.58-.26-3.17-.32-4.77-.01-.4,.02-.9-.14-1.27-.5-1.15-1.84-1.89-2.24-3.08-.47-1.38,.86-2.75,.33-4.26-.81-2.31-3.78-2.84-5.93-2.82-3.22,.04-6.36,.64-9.54,1.13-3.35,.52-7.64,1.01-10.6-1.11-3.56-2.56-5.05-9.22-2.39-12.87,1.45-1.99,4.2-3.05,6.61-3.1,2.55-.06,4.71,1.46,7.05,2.23,1.87,.61,3.67-1.17,5.41-1.52,2.19-.44,3.12,1.95,5.06,2.02,1.88,.06,3.73-1.41,5.56-1.74,3.65-.67,3.44,3,5.88,4.25,1.52,.78,3.49,.31,5.03,1.1,1.17,.6,1.33,1.66,1.59,2.85,.22,1.03,.23,2.23,.57,3.21,.31,.88,1.05,1.44,1.63,2.13,.63,.75,1.04,1.64,1.36,2.58,.71,2.1,.87,4.36,.67,6.56-.33,3.69-1.51,7.32-2.74,10.79-.8,2.25-1.1,4.6-2.32,6.73-.33,.57-1.8,2.25-2.34,1-.12-.27-.1-.57-.08-.86,.16-2.32,2.32-17.29-3.34-15.49-1.19,.38-1.99,1.37-2.43,2.5-.53,1.35-.57,2.71-.5,4.14,0,.2,.02,.41,0,.61-.01,.26-.08,.53-.3,.64Z"/>
            </g>
          </g>
          <path class="cls-26" d="M188.39,111.82c6.45-1.04,10.7-6.13,10.7-6.13,0,0-1.74,8.58-11.09,9.04l.39-2.91Z"/>
          <g>
            <path class="cls-2" d="M200.6,228.8h5.97c.9,0,1.63,.73,1.63,1.63v88.53h-9.23v-88.53c0-.9,.73-1.63,1.63-1.63Z" transform="translate(407.17 547.74) rotate(180)"/>
            <path class="cls-8" d="M184.53,230.06h38.11c3.48,0,6.31,2.83,6.31,6.31v1.39h-50.74v-1.39c0-3.48,2.83-6.31,6.31-6.31Z" transform="translate(407.17 467.82) rotate(180)"/>
            <g>
              <path class="cls-2" d="M200.6,308.45h5.97c.9,0,1.63,.73,1.63,1.63v20.51h-9.23v-20.51c0-.9,.73-1.63,1.63-1.63Z" transform="translate(407.17 639.04) rotate(180)"/>
              <path class="cls-2" d="M155.71,325.19c0,2.98,2.42,5.4,5.4,5.4s5.4-2.42,5.4-5.4-2.42-5.4-5.4-5.4-5.4,2.42-5.4,5.4Z"/>
              <path class="cls-2" d="M240.67,325.19c0,2.98,2.42,5.4,5.4,5.4s5.4-2.42,5.4-5.4-2.42-5.4-5.4-5.4-5.4,2.42-5.4,5.4Z"/>
              <rect class="cls-8" x="194.3" y="301.58" width="18.56" height="16.22" transform="translate(407.17 619.37) rotate(180)"/>
              <path class="cls-4" d="M155.71,313.98h95.76v1.88c0,3.17-2.58,5.75-5.75,5.75h-84.26c-3.17,0-5.75-2.58-5.75-5.75v-1.88h0Z" transform="translate(407.17 635.59) rotate(180)"/>
            </g>
            <rect class="cls-8" x="200.38" y="239.58" width="3.2" height="60.55"/>
          </g>
          <path class="cls-4" d="M239.83,164.63c-2.21-.07-4.01,1.76-3.89,3.97,.63,10.99-1.7,37.8-11.93,46.95-12.52,11.18-47.99,9.66-47.99,9.66,0,0-5.86,7.19,5.86,8.79,11.72,1.6,44.74,.53,52.72-6.92,7.73-7.22,12.32-26.13,8.86-59.04-.2-1.89-1.74-3.35-3.64-3.41h0Z"/>
          <g>
            <polygon class="cls-25" points="173.37 300.13 177.59 309.75 164.67 315.42 160.43 305.77 173.37 300.13"/>
            <path class="cls-12" d="M234.33,193.22c-.8,1.6-58.23,.03-63.65,.53,0,0-35.15,16.78-40.2,32.48-.51,1.58-.65,3.67-.5,6.17,1.41,22.11,26.59,75.06,26.59,75.06l3.87-1.69,12.94-5.64,1.84-.8s-19.97-59.51-15.98-62.71,49.26-11.18,64.96-15.43c15.72-4.27,10.13-27.96,10.13-27.96Z"/>
            <polygon class="cls-10" points="124.1 302.6 125.11 317.05 111 317.05 109.99 302.57 124.1 302.6"/>
            <path class="cls-18" d="M170.39,193.26l-.51,.22s-58.84,8.26-68.43,24.76c-6.23,10.74,5.83,89.19,5.83,89.19l20.82,.05s-3.11-65.35-2.08-68.99c1.17-4.15,3.16-5.66,3.96-6.09-.16-2.49-.02-4.59,.5-6.17,5.05-15.71,40.2-32.48,40.2-32.48-.11-.08-.21-.26-.29-.5Z"/>
            <path class="cls-13" d="M227.22,138.89l-3.95,.54s-.96,10.64-3.31,21.28l-49.16,18.66-.67,3.56c-.21-.02-.42-.03-.61-.05,.02,.73,.02,1.45,.05,2.12,.11,4.11,.38,7.06,.81,8.24,.08,.24,.18,.42,.29,.5,1.34,1.09,18.72-1.02,37.52,5.88,16.3,5.99,25.44,12.52,25.86,11.65,5.12-10.65-4.2-52.45-6.84-72.39Z"/>
            <path class="cls-21" d="M222.09,163.27c-1.31,6.3-4.7,18.82-11.34,20.5-8.68,2.2-25.45,2.09-41.17,1.25-.03-.67-.03-1.39-.05-2.12,.19,.02,.4,.03,.61,.05l.67-3.56,49.16-18.66c2.35-10.64,3.31-21.28,3.31-21.28,0,0,0,.06,.02,.18,.1,1.65,.77,14.36-1.2,23.66Z"/>
            <path class="cls-21" d="M172.81,123.18c-.88,1.6-2.14,18.69-2.83,35.66l-10.05-9.38c4.27-8.26,12.88-26.28,12.88-26.28Z"/>
            <path class="cls-26" d="M166.79,171.24c-8.48,1.47-16.28,2.73-16.28,2.73l-.02,.42c-9.44-7.54-23.81-28.9-23.81-28.9,0,0,4.3-5.16,5.37-6.52,.16-.21,23.58,15.91,24.78,15.77,.3-.03,1.5-2.14,3.1-5.27l10.05,9.38c-.16,4.04-.29,8.07-.37,11.89-.94,.18-1.89,.34-2.83,.51Z"/>
            <path class="cls-9" d="M150.51,173.97l-.21,7h-25.56s2.54-9.99,9.46-9.99,9.59,3.66,9.59,3.66l6.73-.67Z"/>
            <path class="cls-26" d="M131.86,138.81l.19,.16c-1.07,1.36-5.37,6.52-5.37,6.52l-2.67-1.89s-2.94,1.79-6.36-.08c-3.56-1.93-1.36-6.55-1.17-7.1-.69,.19-4.96,3.65-5.63,3.28-.67-.37-1.17-1.58,3.61-6.3,4.76-4.71,11.25,1.34,11.44,1.34l5.96,4.06Z"/>
            <path class="cls-26" d="M118.22,142.72s-1.03,1.93,.8,2.77c1.83,.84,5.39,1.44,6.92,1.3s2.75-2.29,2.75-2.29l-4.63-4.35h-3.71l-2.13,2.57Z"/>
            <path class="cls-27" d="M117.94,143.66c.27-.95,2.91-.44,4.54-.4,1.2,.03,1.86-.29,2.23-1.2,.37-.92-1.37-2.37-1.72-1.92-.34,.46,.63,1.1,.66,1.71,.03,.61-1.72,.81-3.06,.81s-3.66,.35-3.66,.35l1.02,.65Z"/>
          </g>
          <path class="cls-15" d="M217.47,169.79l-25.04-8.87c-1.82,3.4-3.77,5.96-5.7,6.47-2.92,.77-9.99,2.09-17.11,3.34-.94,.18-1.89,.34-2.83,.51-8.48,1.47-16.28,2.73-16.28,2.73l-.02,.42v.27l-.19,6.31v1.6s8.5-.43,19.22,.32c15,1.07,34.35,1.71,40.76-1.31,3-1.42,5.4-6.09,7.29-11.84-.03,.02-.06,.03-.1,.05Z"/>
          <polygon class="cls-26" points="192.43 160.92 217.47 169.79 216.34 173.13 191.56 162.5 192.43 160.92"/>
          <path class="cls-13" d="M192.43,160.92c-1.82,3.4-3.77,5.96-5.7,6.47-2.92,.77-9.99,2.09-17.11,3.34,.08-3.82,.21-7.84,.37-11.89,.69-16.97,1.95-34.06,2.83-35.66,1.44-2.67,5.37-8.47,11.57-9.79l.02,.08s-2.14,12.65,10.64,12.65,13.72-11.84,13.84-12.97c6.26,.7,15.87,3.83,17.19,16.42,.27,2.49,.66,5.69,1.15,9.31l-3.95,.54s-1.6,17.73-5.7,30.31c-.03,.02-.06,.03-.1,.05l-25.04-8.87Z"/>
          <polygon class="cls-5" points="192.17 158.61 202.17 134.41 194.81 159.59 192.17 158.61"/>
          <path class="cls-13" d="M208.87,113.15h-5.45s-7.75,8.51-12.74,8.51-2.3-8.47-2.3-8.47h-2.43c-6.99,0-12.86,5.25-13.65,12.19-.09,.8-.17,1.55-.24,2.23-.53,5.15,20.33,8.9,20.33,8.9l10.74-.6,6.52-12.73,1.3-5.21-2.08-4.82Z"/>
          <g>
            <path class="cls-22" d="M143.13,326.49c.49,2.6,2.29,4.45,4.89,3.97l34.7-6.47c.88-.16,1.46-1.01,1.29-1.89l-.57-3.08s-36.5,6.39-40.33,7.45l.02,.02Z"/>
            <path class="cls-18" d="M153.46,317.75c.36-.31,.71-.63,1.07-.94,.7-.62,1.38-1.23,2.04-1.82,.35-.31,.7-.62,1.02-.92,.63-.57,1.23-1.1,1.77-1.58,.38-.35,.74-.68,1.07-.97,.59-.53,1.08-.97,1.42-1.27,.29-.26,.73-.28,1.03-.02,1.43,1.2,6.04,3.94,14.39-1.23,.4-.25,.92-.12,1.14,.3l5.05,9.71s-36.5,6.39-40.33,7.45c1.26-.79,5.92-4.82,10.34-8.72Z"/>
          </g>
          <g>
            <path class="cls-22" d="M88.48,326.15c.06,2.65,1.55,4.76,4.2,4.7l35.29-.86c.89-.02,1.6-.76,1.58-1.66l-.08-3.13s-37.05,.49-41,.93v.02Z"/>
            <path class="cls-18" d="M100.06,319.17c.41-.25,.8-.5,1.21-.76,.79-.5,1.56-.99,2.3-1.47,.39-.25,.79-.5,1.15-.74,.72-.46,1.39-.89,1.99-1.28,.44-.28,.84-.55,1.21-.79,.67-.43,1.22-.78,1.6-1.03,.33-.21,.76-.16,1.02,.14,1.22,1.41,5.33,4.85,14.4,1.08,.43-.18,.93,.03,1.07,.47l3.44,10.39s-37.05,.49-41,.93c1.37-.58,6.61-3.81,11.6-6.96Z"/>
          </g>
          <g>
            <polygon class="cls-30" points="63.38 182.57 44.53 132.31 98.18 132.31 117.03 182.57 63.38 182.57"/>
            <polygon class="cls-14" points="120.35 182.57 117.03 182.57 98.18 132.31 101.2 132.44 118.63 177.94 120.35 182.57"/>
            <path class="cls-14" d="M119.31,182.57h35.45l-.1-3.17h-36.08"/>
          </g>
          <g>
            <rect class="cls-14" x="261.81" y="192.16" width="8.54" height="140.23"/>
            <rect class="cls-30" x="215.48" y="192.16" width="8.54" height="140.23"/>
            <rect class="cls-14" x="67.04" y="192.16" width="8.54" height="140.23"/>
            <rect class="cls-30" x="20.71" y="192.16" width="8.54" height="140.23"/>
            <rect class="cls-3" x="8.38" y="182.57" width="274.66" height="10.12" rx="4.15" ry="4.15"/>
          </g>
          <polygon class="cls-14" points="53.49 137.59 54.41 140.04 65.1 140.04 64.18 137.59 53.49 137.59"/>
          <polygon class="cls-27" points="159.94 149.46 159.17 150.95 169.99 162.12 169.99 158.84 159.94 149.46"/>
        </g>
      </g>
      <rect class="cls-7" y="329.76" width="319.41" height="9.86"/>
      <g>
        <g>
          <path class="cls-31" d="M312.23,257.44c-1.72,8.33-1.2,22.51-12.21,24.75-2.97,.6-5.83-1.45-7.55-3.81-2.26-3.08-2.8-9.61-2.76-13.34,.03-2.96,1.04-6.26,1.36-9.24,.35-3.22,.64-6.45,1.01-9.67,1.35-11.61,7.42-21.34,17.68-27.13,.79,3.81,2.6,7.04,4.2,10.69,.73,1.67,1.38,3.43,1.86,5.18,.84,3.1-.18,6.22-.93,9.19-1.11,4.38-1.74,8.95-2.66,13.38Z"/>
          <path class="cls-20" d="M298.15,282.47c.08-.7,.16-1.4,.26-2.09,1.32,0,2.69-.75,3.79-1.32,1.92-.99,3.47-2.42,4.97-3.94,.08-.08-.06-.21-.14-.14-1.5,1.26-3.06,2.48-4.84,3.31-1,.46-2.45,1.22-3.68,1.37,.12-.83,.24-1.67,.38-2.5,1.37-.17,2.63-1.07,3.79-1.76,1.97-1.17,3.67-2.68,5.43-4.14,.02-.02,0-.05-.02-.03-2.69,1.95-5.69,4.73-9.09,5.34,.18-1.04,.37-2.08,.59-3.11,.01-.05,.02-.11,.03-.16,3.94-1,6.6-4.08,9.62-6.58,.05-.04,0-.12-.06-.08-2.97,2.31-5.76,4.94-9.43,6.06,.32-1.47,.65-2.94,.98-4.41,3.56-1.31,6.41-3.4,8.9-6.31,.04-.05-.03-.12-.07-.07-2.58,2.68-5.41,4.22-8.68,5.75,.33-1.45,.66-2.91,.97-4.36,1.54-.76,3.16-1.22,4.59-2.22,1.4-.98,2.66-2.16,3.57-3.62,.05-.08-.07-.15-.12-.08-1.99,2.87-5,3.76-7.9,5.26,.28-1.36,.55-2.72,.78-4.09,3.24-1.78,6.75-3.43,8.59-6.85,.02-.03-.03-.07-.05-.03-1.94,3.14-5.34,4.49-8.42,6.2,.04-.24,.08-.49,.12-.73,.2-1.27,.38-2.54,.57-3.82,1.86-.74,3.63-1.8,5.31-2.89,1.19-.77,2.46-1.54,3.23-2.75,.05-.08-.06-.15-.12-.08-1.74,2.49-5.54,3.92-8.35,5.17,.18-1.29,.36-2.57,.55-3.86,3.12-1.89,6.78-2.93,8.7-6.33,.06-.1-.09-.19-.15-.1-1.99,3.1-5.48,4.06-8.46,5.82,.11-.8,.23-1.59,.35-2.39,3.36-1.24,7.28-4.05,9.05-7.09,.1-.17-.14-.32-.25-.16-1.81,2.67-5.44,5.57-8.7,6.63,.2-1.29,.41-2.58,.64-3.86,.02-.04,.04-.07,.05-.11,1.51-.44,3-1.51,4.31-2.31,1.57-.97,3.07-2.1,4.05-3.69,.11-.18-.18-.34-.28-.16-1.49,2.67-5.04,4.45-7.98,5.47,.09-.47,.17-.94,.26-1.4,.14-.7,.28-1.4,.42-2.1,1.2-.83,2.73-1.23,3.94-2.1,1.05-.76,1.97-1.68,2.86-2.61,.09-.09-.04-.24-.14-.15-1.22,1.15-2.47,2.24-3.95,3.04-.83,.44-1.77,.7-2.58,1.18,.23-1.14,.47-2.29,.69-3.43,.01,0,.03,0,.04,0,.01,0,.03,0,.04,0,.08,.02,.15-.01,.2-.06,1.63-.41,2.89-1.82,3.98-3.02,.03-.03-.01-.07-.04-.04-1.15,1.07-2.46,2.25-4.01,2.7,0,0,0,0-.02,0-.04,0-.08-.01-.12-.02,.18-.93,.35-1.86,.5-2.8,.12-.02,.22-.12,.19-.24,.87-.58,1.65-1.32,2.39-2.05,.06-.05-.02-.14-.08-.09-.77,.66-1.53,1.21-2.39,1.69,.31-1.93,.54-3.87,.65-5.84,.01-.18-.26-.18-.28,0-.17,1.89-.45,3.76-.77,5.62-.9-1.18-1.91-2.4-2.46-3.76-.03-.07-.14-.04-.12,.03,.27,.84,.73,1.58,1.19,2.32,.41,.67,.74,1.45,1.27,2.04-.18,1-.38,2-.58,2.99-1.1-.18-2.1-.38-3.01-1.18-1.11-.97-1.74-2.29-1.85-3.76-.01-.18-.3-.18-.28,0,.12,1.36,.67,2.64,1.6,3.66,.98,1.07,2.13,1.41,3.45,1.68-.24,1.15-.49,2.3-.74,3.44-1-.6-1.92-1.38-2.82-2.09-1.45-1.15-2.3-2.54-3.56-3.84-.13-.13-.33,.06-.21,.19,1.18,1.25,1.97,2.61,3.32,3.73,.96,.81,2.03,1.83,3.18,2.42-.01,.06-.03,.12-.04,.18-.01,.01-.03,.02-.04,.03-.09,.09-.08,.19-.03,.26-.24,1.1-.48,2.2-.72,3.3-.01,.07-.03,.14-.04,.21-2.56-1.17-6.39-3.21-6.73-6.18-.03-.28-.45-.2-.39,.09,.76,3.36,4.45,4.85,7,6.69-.25,1.25-.48,2.49-.69,3.75-1.65-.57-3.23-1.27-4.62-2.38-1.26-1-3.05-2.22-3.62-3.77-.02-.05-.09-.02-.07,.03,.53,1.55,2.13,2.61,3.3,3.67,1.48,1.34,3,2.48,4.9,3.01-.01,.05-.02,.11,0,.17-.13,.79-.26,1.59-.38,2.38-3.11-.24-7.46-2.6-9.05-4.95,0-.01-.02,0-.02,.01,1.08,1.8,2.72,2.85,4.57,3.76,1.38,.68,2.87,1.48,4.43,1.6-.22,1.47-.44,2.95-.66,4.42-1.35-.5-2.78-.74-4.12-1.28-1.99-.79-3.5-2.22-4.67-3.98-.07-.11-.25-.02-.18,.09,2.15,3.42,5.25,4.43,8.88,5.71-.18,1.21-.37,2.42-.57,3.62-2.97-.57-6.81-2.38-8.32-4.96-.11-.19-.41-.03-.3,.16,.95,1.65,2.59,2.7,4.25,3.54,1.2,.61,2.86,1.61,4.29,1.72,0,.04-.01,.08-.02,.12-.29,1.74-.64,3.46-1.01,5.18-3.32-.83-5.46-3.29-7.88-5.59-.17-.16-.43,.08-.26,.25,2.46,2.42,4.62,4.96,8.03,5.85-.31,1.4-.63,2.8-.97,4.19-2.83-.79-5.62-2.8-7.45-5.1-.13-.16-.36,.06-.23,.22,1.9,2.5,4.64,4.39,7.56,5.42-.37,1.49-.75,2.99-1.13,4.48-2.9-.44-5.14-2.26-6.93-4.56-.04-.05-.14,.02-.1,.07,1.59,2.21,3.99,4.76,6.88,5.03-.12,.48-.25,.95-.37,1.43-.07,.29-.15,.58-.23,.87-2.19-.64-4.22-1.43-6.03-2.91-.05-.04-.11,.04-.06,.08,1.72,1.55,3.77,2.59,5.97,3.26-.24,.89-.5,1.82-.76,2.75-.54-.25-1.07-.53-1.66-.71-1.09-.33-1.79-1.02-2.74-1.59-.09-.05-.18,.07-.1,.13,.83,.54,1.42,1.24,2.37,1.6,.7,.26,1.37,.6,2.05,.9-1,3.72-1.88,7.67-1.4,11.24,.11,.79,1.43,1,1.64,.16,.63-2.59,.6-5.35,.89-8Z"/>
        </g>
        <g>
          <path class="cls-1" d="M277.38,255.06c1.96,8.27,8.41,20.91-.62,27.59-2.43,1.8-5.9,1.15-8.46-.26-3.35-1.84-6.59-7.53-8.13-10.93-1.22-2.69-1.7-6.11-2.66-8.95-1.04-3.07-2.15-6.12-3.17-9.2-3.67-11.1-2.28-22.47,4.57-32.06,2.33,3.12,5.33,5.28,8.32,7.92,1.36,1.2,2.7,2.52,3.87,3.91,2.07,2.45,2.47,5.72,3.04,8.72,.84,4.44,2.2,8.85,3.24,13.26Z"/>
          <path class="cls-20" d="M275.18,283.69c-.22-.67-.44-1.34-.65-2.01,1.19-.56,2.12-1.81,2.88-2.8,1.32-1.71,2.12-3.66,2.85-5.67,.04-.11-.14-.17-.19-.07-.83,1.78-1.72,3.54-2.99,5.05-.71,.84-1.71,2.14-2.76,2.79-.25-.8-.48-1.61-.71-2.42,1.17-.73,1.93-2.08,2.69-3.19,1.29-1.89,2.19-3.98,3.17-6.05,.01-.02-.02-.04-.04-.02-1.61,2.91-3.16,6.69-5.98,8.68-.28-1.02-.54-2.04-.78-3.07-.01-.05-.02-.11-.04-.16,3.15-2.56,4.26-6.49,5.94-10.02,.03-.06-.06-.11-.09-.05-1.72,3.34-3.14,6.91-5.99,9.47-.33-1.47-.65-2.94-.97-4.41,2.68-2.69,4.37-5.79,5.4-9.47,.02-.06-.07-.1-.09-.03-1.2,3.52-3.13,6.11-5.45,8.88-.31-1.46-.63-2.91-.97-4.36,1.08-1.34,2.35-2.44,3.22-3.94,.86-1.48,1.51-3.08,1.71-4.79,.01-.09-.12-.11-.14-.02-.6,3.44-2.95,5.52-4.94,8.11-.32-1.35-.65-2.7-1.02-4.04,2.18-2.98,4.67-5.96,4.89-9.83,0-.04-.05-.05-.06,0-.44,3.66-2.95,6.32-5.02,9.17-.07-.24-.13-.48-.2-.72-.36-1.24-.73-2.47-1.1-3.7,1.37-1.46,2.53-3.16,3.59-4.86,.75-1.2,1.58-2.43,1.77-3.86,.01-.09-.12-.11-.14-.02-.52,2.99-3.36,5.89-5.38,8.21-.38-1.24-.76-2.48-1.13-3.73,2.03-3.02,4.91-5.52,5.22-9.41,0-.12-.16-.14-.18-.02-.49,3.65-3.26,5.99-5.21,8.85-.23-.77-.46-1.54-.69-2.31,2.53-2.54,4.89-6.75,5.21-10.25,.02-.19-.27-.23-.3-.04-.51,3.18-2.59,7.35-5.09,9.68-.36-1.25-.72-2.51-1.05-3.77,0-.04,0-.08,0-.12,1.18-1.04,2.09-2.64,2.93-3.92,1.02-1.54,1.9-3.2,2.11-5.06,.02-.21-.3-.23-.32-.03-.23,3.05-2.69,6.17-4.92,8.33-.12-.46-.24-.92-.35-1.39-.17-.69-.34-1.39-.5-2.08,.74-1.26,1.96-2.26,2.68-3.57,.63-1.13,1.07-2.35,1.5-3.58,.04-.12-.14-.19-.19-.07-.62,1.55-1.29,3.08-2.3,4.42-.56,.75-1.31,1.38-1.84,2.16-.27-1.14-.54-2.27-.82-3.4,.01,0,.02-.02,.03-.03,.01,0,.03,0,.04-.01,.08-.02,.13-.08,.15-.14,1.31-1.06,1.85-2.87,2.34-4.42,.01-.04-.04-.06-.06-.02-.6,1.45-1.28,3.07-2.49,4.14,0,0-.01,0-.02,0-.04,.01-.08,.02-.11,.03-.23-.92-.47-1.84-.72-2.75,.1-.07,.15-.2,.07-.3,.54-.89,.94-1.9,1.3-2.87,.03-.07-.08-.12-.11-.05-.42,.92-.87,1.74-1.46,2.54-.54-1.88-1.14-3.74-1.87-5.57-.07-.17-.32-.05-.26,.11,.64,1.78,1.18,3.6,1.67,5.42-1.32-.69-2.74-1.37-3.81-2.37-.06-.05-.14,.02-.09,.08,.6,.65,1.33,1.12,2.06,1.6,.66,.43,1.28,1,2.01,1.32,.26,.98,.5,1.97,.73,2.96-1.07,.3-2.07,.54-3.22,.2-1.41-.41-2.54-1.34-3.26-2.63-.09-.16-.35-.04-.25,.12,.69,1.18,1.72,2.12,2.99,2.64,1.34,.55,2.53,.38,3.84,.07,.27,1.14,.53,2.29,.78,3.43-1.15-.12-2.32-.44-3.44-.71-1.8-.44-3.16-1.33-4.85-1.98-.17-.06-.28,.19-.11,.26,1.6,.64,2.89,1.53,4.58,1.99,1.22,.33,2.61,.8,3.91,.86,.01,.06,.03,.12,.04,.18,0,.02-.01,.03-.02,.05-.04,.12,0,.2,.09,.24,.24,1.1,.49,2.2,.74,3.29,.02,.07,.03,.14,.05,.2-2.82,.02-7.15-.21-8.71-2.76-.15-.24-.5,0-.32,.24,2.11,2.73,6.09,2.52,9.17,3.11,.3,1.23,.62,2.46,.95,3.69-1.74,.18-3.46,.21-5.19-.21-1.57-.38-3.7-.72-4.87-1.89-.04-.04-.09,.02-.05,.06,1.13,1.18,3.03,1.47,4.54,1.93,1.91,.59,3.76,.98,5.71,.66,.01,.06,.03,.11,.07,.15,.22,.77,.44,1.55,.66,2.32-2.92,1.1-7.86,.79-10.3-.67-.01,0-.02,.01,0,.02,1.74,1.17,3.67,1.43,5.73,1.48,1.54,.03,3.23,.13,4.7-.42,.42,1.43,.84,2.86,1.27,4.28-1.44,.11-2.83,.5-4.27,.58-2.14,.12-4.11-.54-5.91-1.63-.11-.07-.23,.09-.12,.16,3.4,2.2,6.63,1.8,10.46,1.43,.35,1.17,.68,2.35,1.01,3.52-2.93,.74-7.18,.72-9.63-.99-.18-.13-.39,.14-.21,.27,1.56,1.1,3.48,1.36,5.35,1.42,1.35,.04,3.27,.26,4.61-.25,.01,.04,.02,.08,.03,.12,.47,1.7,.88,3.41,1.27,5.12-3.36,.64-6.34-.68-9.5-1.75-.22-.07-.35,.26-.13,.34,3.25,1.16,6.28,2.54,9.75,1.91,.31,1.4,.61,2.8,.89,4.21-2.9,.48-6.28-.16-8.91-1.48-.19-.09-.3,.2-.12,.3,2.78,1.46,6.06,2.02,9.14,1.72,.3,1.51,.58,3.02,.86,4.53-2.82,.82-5.61,.12-8.21-1.21-.06-.03-.12,.07-.06,.11,2.37,1.33,5.63,2.63,8.36,1.66,.09,.48,.18,.97,.27,1.45,.05,.29,.11,.59,.16,.89-2.26,.34-4.43,.48-6.69-.09-.06-.02-.08,.08-.02,.1,2.21,.68,4.51,.75,6.79,.44,.16,.91,.31,1.86,.48,2.81-.6,0-1.19-.03-1.81,.06-1.13,.16-2.06-.16-3.16-.28-.1-.01-.14,.14-.03,.16,.98,.14,1.81,.53,2.82,.45,.75-.06,1.49-.03,2.24-.04,.67,3.79,1.53,7.75,3.48,10.79,.43,.67,1.72,.3,1.55-.55-.52-2.61-1.72-5.11-2.57-7.63Z"/>
        </g>
        <g>
          <path class="cls-29" d="M296.47,248.64c.47,10.51,5.39,27.37-7.15,33.4-3.38,1.62-7.44,.03-10.22-2.28-3.64-3.01-6.27-10.68-7.35-15.17-.86-3.56-.65-7.82-1.16-11.5-.56-3.97-1.19-7.94-1.72-11.91-1.89-14.34,2.43-27.85,12.98-37.91,2.11,4.33,5.26,7.65,8.28,11.56,1.38,1.78,2.7,3.69,3.8,5.65,1.95,3.46,1.68,7.52,1.67,11.31,0,5.6,.62,11.27,.87,16.86Z"/>
          <path class="cls-20" d="M287.17,282.95c-.12-.86-.23-1.73-.33-2.59,1.58-.4,3-1.72,4.15-2.74,2-1.77,3.43-3.95,4.77-6.24,.07-.12-.13-.24-.21-.13-1.42,1.97-2.92,3.9-4.81,5.45-1.05,.86-2.57,2.21-4,2.76-.11-1.04-.21-2.07-.3-3.11,1.59-.62,2.83-2.08,4.01-3.26,2.01-2,3.59-4.33,5.25-6.62,.02-.03-.02-.06-.04-.03-2.63,3.16-5.39,7.4-9.28,9.16-.1-1.3-.18-2.61-.24-3.91,0-.07,0-.14,0-.2,4.42-2.39,6.68-6.9,9.54-10.81,.05-.06-.04-.15-.09-.08-2.86,3.67-5.41,7.67-9.48,10.12-.07-1.86-.11-3.73-.16-5.59,3.88-2.66,6.66-6.02,8.76-10.27,.04-.07-.07-.13-.11-.06-2.28,4-5.22,6.71-8.67,9.53-.05-1.84-.09-3.69-.16-5.53,1.62-1.38,3.42-2.42,4.83-4.05,1.39-1.6,2.54-3.39,3.18-5.42,.03-.11-.13-.16-.17-.05-1.52,4.04-4.86,6.02-7.89,8.71-.07-1.72-.17-3.43-.3-5.15,3.34-3.12,7.06-6.17,8.23-10.82,.01-.05-.06-.07-.07-.02-1.38,4.35-5.04,7-8.23,9.99-.03-.31-.05-.61-.07-.92-.15-1.58-.31-3.17-.48-4.75,2.01-1.46,3.81-3.26,5.49-5.07,1.19-1.29,2.48-2.59,3.05-4.29,.04-.11-.12-.17-.16-.06-1.33,3.51-5.45,6.39-8.45,8.73-.17-1.6-.34-3.19-.51-4.79,3.17-3.21,7.25-5.57,8.52-10.23,.04-.14-.17-.2-.21-.07-1.44,4.32-5.35,6.53-8.38,9.55-.1-.99-.21-1.98-.3-2.97,3.66-2.5,7.5-7.07,8.71-11.26,.07-.23-.27-.34-.35-.12-1.36,3.75-4.84,8.33-8.43,10.59-.15-1.61-.29-3.21-.41-4.82,.02-.05,.03-.1,.03-.15,1.68-.99,3.15-2.72,4.47-4.08,1.59-1.64,3.05-3.45,3.74-5.66,.08-.24-.32-.35-.38-.1-.98,3.65-4.7,6.87-7.91,8.99-.04-.59-.08-1.18-.11-1.77-.05-.88-.09-1.76-.13-2.65,1.19-1.36,2.9-2.3,4.08-3.72,1.03-1.23,1.85-2.61,2.65-4,.08-.14-.12-.27-.21-.13-1.11,1.74-2.28,3.44-3.82,4.84-.86,.78-1.92,1.37-2.73,2.2-.06-1.44-.13-2.88-.21-4.33,.02,0,.03-.02,.05-.02,.02,0,.04,0,.05,0,.1,0,.18-.06,.22-.13,1.84-.99,2.91-3.06,3.86-4.83,.02-.04-.04-.08-.06-.04-1.06,1.63-2.27,3.44-3.99,4.46,0,0-.01,0-.02,0-.05,0-.1,0-.15,.01-.07-1.17-.15-2.34-.24-3.51,.14-.06,.23-.21,.16-.35,.86-.96,1.58-2.09,2.25-3.18,.05-.08-.07-.16-.12-.08-.72,1.03-1.47,1.91-2.36,2.75-.22-2.41-.52-4.81-.99-7.2-.04-.22-.37-.14-.34,.08,.37,2.32,.61,4.64,.78,6.98-1.44-1.15-3.01-2.3-4.09-3.76-.06-.08-.18,0-.13,.08,.58,.93,1.36,1.67,2.14,2.43,.7,.68,1.33,1.51,2.14,2.07,.09,1.25,.15,2.51,.21,3.77-1.37,.12-2.64,.18-3.96-.5-1.62-.83-2.78-2.22-3.36-3.95-.07-.21-.41-.12-.34,.09,.56,1.6,1.6,2.97,3.03,3.91,1.5,.98,2.98,1.04,4.65,.97,.06,1.45,.11,2.9,.16,4.36-1.38-.41-2.72-1.07-4.02-1.66-2.09-.95-3.53-2.35-5.44-3.53-.19-.12-.38,.17-.19,.29,1.79,1.15,3.16,2.53,5.11,3.47,1.4,.68,2.99,1.58,4.55,1.94,0,.08,0,.15,0,.23-.01,.02-.03,.03-.04,.05-.08,.13-.04,.25,.05,.32,.04,1.39,.09,2.78,.14,4.17,0,.09,0,.17,.01,.26-3.43-.63-8.64-1.91-9.95-5.38-.12-.33-.61-.11-.44,.22,1.93,3.81,6.82,4.47,10.43,5.9,.08,1.57,.18,3.14,.3,4.7-2.16-.18-4.26-.55-6.26-1.45-1.82-.82-4.33-1.73-5.49-3.43-.04-.05-.11,0-.08,.06,1.1,1.7,3.35,2.49,5.07,3.4,2.18,1.16,4.35,2.06,6.79,2.13,0,.07,.01,.14,.05,.2,.08,.99,.17,1.98,.27,2.97-3.81,.66-9.74-.86-12.37-3.2-.01-.01-.03,0-.02,.02,1.85,1.83,4.13,2.59,6.62,3.12,1.86,.4,3.9,.91,5.81,.58,.18,1.83,.37,3.67,.55,5.5-1.77-.19-3.56-.05-5.33-.29-2.62-.35-4.88-1.6-6.81-3.36-.12-.11-.3,.05-.18,.17,3.62,3.46,7.64,3.72,12.39,4.16,.15,1.5,.29,3.01,.41,4.52-3.74,.22-8.9-.79-11.48-3.43-.19-.19-.5,.09-.31,.28,1.64,1.7,3.92,2.45,6.18,2.96,1.63,.36,3.92,1.07,5.67,.76,0,.05,0,.1,.01,.15,.17,2.17,.29,4.35,.36,6.52-4.23,0-7.55-2.29-11.15-4.32-.25-.14-.49,.23-.24,.38,3.68,2.16,7.04,4.55,11.41,4.58,.06,1.77,.09,3.55,.11,5.32-3.63-.09-7.6-1.65-10.49-3.86-.2-.16-.41,.18-.21,.34,3.04,2.42,6.9,3.86,10.71,4.21,.01,1.9,.01,3.81,0,5.71-3.62,.35-6.85-1.15-9.7-3.37-.07-.05-.16,.06-.09,.12,2.58,2.17,6.23,4.5,9.78,3.95,0,.61,0,1.22,0,1.82,0,.37,0,.74-.01,1.12-2.82-.11-5.5-.44-8.11-1.66-.07-.03-.12,.08-.05,.11,2.53,1.33,5.31,1.96,8.15,2.11-.02,1.15-.05,2.33-.07,3.53-.73-.14-1.44-.31-2.21-.35-1.41-.06-2.46-.68-3.77-1.07-.12-.04-.2,.14-.08,.18,1.16,.4,2.08,1.06,3.32,1.2,.92,.1,1.82,.31,2.73,.46-.07,4.77,.07,9.78,1.73,13.92,.37,.92,2.03,.77,2.02-.31-.03-3.3-.91-6.6-1.35-9.87Z"/>
        </g>
        <polygon class="cls-19" points="303.38 286.89 302.92 295.43 302.19 308.73 301 330.59 271.41 330.59 270.22 308.73 269.5 295.43 269.03 286.89 303.38 286.89"/>
        <polygon class="cls-7" points="302.92 295.43 302.82 297.14 302.73 298.91 302.19 308.73 270.22 308.73 269.69 298.91 269.59 297.14 269.5 295.43 302.92 295.43"/>
        <polygon class="cls-19" points="302.82 297.14 302.73 298.91 269.69 298.91 269.59 297.14 302.82 297.14"/>
      </g>
    </g>
  </g>
</svg>